<?xml version="1.0" encoding="UTF-8"?>
<!--
  Lucide icon sprite (MIT-licensed; see LICENSE-LUCIDE).
  Consumed via <svg><use href="/viz/assets/icons.svg#icon-NAME"/></svg>.
  Every symbol uses stroke="currentColor" so CSS color tokens propagate.

  Path data sourced from Lucide v0.x:
    https://lucide.dev/icons/
-->
<svg xmlns="http://www.w3.org/2000/svg" style="display:none">

  <!--
    All symbols share the same 24x24 viewBox, 2px stroke, rounded
    line caps + joins, no fill. Matches the Lucide v0.x render.
  -->
  <symbol id="icon-search" viewBox="0 0 24 24" fill="none"
          stroke="currentColor" stroke-width="2"
          stroke-linecap="round" stroke-linejoin="round">
    <circle cx="11" cy="11" r="8"/>
    <path d="m21 21-4.3-4.3"/>
  </symbol>

  <symbol id="icon-x" viewBox="0 0 24 24" fill="none"
          stroke="currentColor" stroke-width="2"
          stroke-linecap="round" stroke-linejoin="round">
    <path d="M18 6 6 18"/>
    <path d="m6 6 12 12"/>
  </symbol>

  <symbol id="icon-loader" viewBox="0 0 24 24" fill="none"
          stroke="currentColor" stroke-width="2"
          stroke-linecap="round" stroke-linejoin="round">
    <path d="M12 2v4"/>
    <path d="m16.2 7.8 2.9-2.9"/>
    <path d="M18 12h4"/>
    <path d="m16.2 16.2 2.9 2.9"/>
    <path d="M12 18v4"/>
    <path d="m4.9 19.1 2.9-2.9"/>
    <path d="M2 12h4"/>
    <path d="m4.9 4.9 2.9 2.9"/>
  </symbol>

  <symbol id="icon-chevron-right" viewBox="0 0 24 24" fill="none"
          stroke="currentColor" stroke-width="2"
          stroke-linecap="round" stroke-linejoin="round">
    <path d="m9 18 6-6-6-6"/>
  </symbol>

  <symbol id="icon-chevron-down" viewBox="0 0 24 24" fill="none"
          stroke="currentColor" stroke-width="2"
          stroke-linecap="round" stroke-linejoin="round">
    <path d="m6 9 6 6 6-6"/>
  </symbol>

  <symbol id="icon-chevron-up" viewBox="0 0 24 24" fill="none"
          stroke="currentColor" stroke-width="2"
          stroke-linecap="round" stroke-linejoin="round">
    <path d="m18 15-6-6-6 6"/>
  </symbol>

  <symbol id="icon-arrow-left" viewBox="0 0 24 24" fill="none"
          stroke="currentColor" stroke-width="2"
          stroke-linecap="round" stroke-linejoin="round">
    <path d="m12 19-7-7 7-7"/>
    <path d="M19 12H5"/>
  </symbol>

  <symbol id="icon-alert-triangle" viewBox="0 0 24 24" fill="none"
          stroke="currentColor" stroke-width="2"
          stroke-linecap="round" stroke-linejoin="round">
    <path d="m21.73 18-8-14a2 2 0 0 0-3.48 0l-8 14A2 2 0 0 0 4 21h16a2 2 0 0 0 1.73-3Z"/>
    <path d="M12 9v4"/>
    <path d="M12 17h.01"/>
  </symbol>

  <symbol id="icon-alert-circle" viewBox="0 0 24 24" fill="none"
          stroke="currentColor" stroke-width="2"
          stroke-linecap="round" stroke-linejoin="round">
    <circle cx="12" cy="12" r="10"/>
    <path d="M12 8v4"/>
    <path d="M12 16h.01"/>
  </symbol>

  <symbol id="icon-info" viewBox="0 0 24 24" fill="none"
          stroke="currentColor" stroke-width="2"
          stroke-linecap="round" stroke-linejoin="round">
    <circle cx="12" cy="12" r="10"/>
    <path d="M12 16v-4"/>
    <path d="M12 8h.01"/>
  </symbol>

  <symbol id="icon-copy" viewBox="0 0 24 24" fill="none"
          stroke="currentColor" stroke-width="2"
          stroke-linecap="round" stroke-linejoin="round">
    <rect width="14" height="14" x="8" y="8" rx="2" ry="2"/>
    <path d="M4 16c-1.1 0-2-.9-2-2V4c0-1.1.9-2 2-2h10c1.1 0 2 .9 2 2"/>
  </symbol>

</svg>
